<svg width="34" height="25" viewBox="0 0 34 25" fill="none" xmlns="http://www.w3.org/2000/svg">
<path d="M6.18182 0H34V18.75H6.18182V0ZM20.0909 4.6875C21.3205 4.6875 22.4998 5.18136 23.3693 6.06044C24.2388 6.93951 24.7273 8.1318 24.7273 9.375C24.7273 10.6182 24.2388 11.8105 23.3693 12.6896C22.4998 13.5686 21.3205 14.0625 20.0909 14.0625C18.8613 14.0625 17.682 13.5686 16.8125 12.6896C15.943 11.8105 15.4545 10.6182 15.4545 9.375C15.4545 8.1318 15.943 6.93951 16.8125 6.06044C17.682 5.18136 18.8613 4.6875 20.0909 4.6875ZM12.3636 3.125C12.3636 3.9538 12.038 4.74866 11.4583 5.33471C10.8787 5.92076 10.0925 6.25 9.27273 6.25V12.5C10.0925 12.5 10.8787 12.8292 11.4583 13.4153C12.038 14.0013 12.3636 14.7962 12.3636 15.625H27.8182C27.8182 14.7962 28.1438 14.0013 28.7235 13.4153C29.3031 12.8292 30.0893 12.5 30.9091 12.5V6.25C30.0893 6.25 29.3031 5.92076 28.7235 5.33471C28.1438 4.74866 27.8182 3.9538 27.8182 3.125H12.3636ZM0 6.25H3.09091V21.875H27.8182V25H0V6.25Z" fill="#13B5E7"/>
</svg>
