<svg width="27" height="25" viewBox="0 0 27 25" fill="none" xmlns="http://www.w3.org/2000/svg">
<path d="M23.1429 0H2.57143C1.88944 0 1.23539 0.277255 0.753154 0.770772C0.270917 1.26429 0 1.93364 0 2.63158V18.4211C0 19.119 0.270917 19.7883 0.753154 20.2819C1.23539 20.7754 1.88944 21.0526 2.57143 21.0526H14.2586C14.1807 20.6186 14.1419 20.1781 14.1429 19.7368C14.1429 17.643 14.9556 15.635 16.4023 14.1544C17.849 12.6739 19.8112 11.8421 21.8571 11.8421C23.213 11.837 24.5452 12.2051 25.7143 12.9079V2.63158C25.7143 1.93364 25.4434 1.26429 24.9611 0.770772C24.4789 0.277255 23.8248 0 23.1429 0ZM23.1429 9.21053H2.57143V5.26316H23.1429M23.1429 14.4737V18.4211H27V21.0526H23.1429V25H20.5714V21.0526H16.7143V18.4211H20.5714V14.4737H23.1429Z" fill="#13B5E7"/>
</svg>
