<svg width="46" height="42" viewBox="0 0 46 42" fill="none" xmlns="http://www.w3.org/2000/svg">
<path d="M18.4064 0L13.8127 4.66667V9.33333H6.92225C4.2809 9.33333 2.60422 11.6667 2.3286 14L0.0317813 37.3333C-0.243837 39.6667 1.27207 42 4.62542 42H41.3746C44.7279 42 46.2438 39.6667 45.9682 37.3333L43.6714 14C43.3958 11.6667 41.5124 9.33333 39.0778 9.33333H32.1873V4.66667L27.5936 0H18.4064ZM18.4064 4.66667H27.5936V9.33333H18.4064V4.66667ZM20.7032 16.3333H25.2968V23.3333H32.1873V28H25.2968V35H20.7032V28H13.8127V23.3333H20.7032V16.3333Z" fill="#13B5E7"/>
</svg>
