<svg width="51" height="44" viewBox="0 0 51 44" fill="none" xmlns="http://www.w3.org/2000/svg">
<path d="M5.66667 16.5L9.91667 4.125H41.0833L45.3333 16.5M41.0833 30.25C39.9562 30.25 38.8752 29.8154 38.0781 29.0418C37.2811 28.2682 36.8333 27.219 36.8333 26.125C36.8333 25.031 37.2811 23.9818 38.0781 23.2082C38.8752 22.4346 39.9562 22 41.0833 22C42.2105 22 43.2915 22.4346 44.0885 23.2082C44.8856 23.9818 45.3333 25.031 45.3333 26.125C45.3333 27.219 44.8856 28.2682 44.0885 29.0418C43.2915 29.8154 42.2105 30.25 41.0833 30.25ZM9.91667 30.25C8.7895 30.25 7.70849 29.8154 6.91146 29.0418C6.11443 28.2682 5.66667 27.219 5.66667 26.125C5.66667 25.031 6.11443 23.9818 6.91146 23.2082C7.70849 22.4346 8.7895 22 9.91667 22C11.0438 22 12.1248 22.4346 12.9219 23.2082C13.7189 23.9818 14.1667 25.031 14.1667 26.125C14.1667 27.219 13.7189 28.2682 12.9219 29.0418C12.1248 29.8154 11.0438 30.25 9.91667 30.25ZM45.1067 2.75C44.54 1.155 42.9533 0 41.0833 0H9.91667C8.04667 0 6.46 1.155 5.89333 2.75L0 19.25V41.25C0 41.9793 0.298511 42.6788 0.829864 43.1945C1.36122 43.7103 2.08189 44 2.83333 44H5.66667C6.41811 44 7.13878 43.7103 7.67014 43.1945C8.20149 42.6788 8.5 41.9793 8.5 41.25V38.5H42.5V41.25C42.5 41.9793 42.7985 42.6788 43.3299 43.1945C43.8612 43.7103 44.5819 44 45.3333 44H48.1667C48.9181 44 49.6388 43.7103 50.1701 43.1945C50.7015 42.6788 51 41.9793 51 41.25V19.25L45.1067 2.75Z" fill="#13B5E7"/>
</svg>
